<?xml version="1.0"?>
<svg xmlns="http://www.w3.org/2000/svg" xmlns:xlink="http://www.w3.org/1999/xlink" xmlns:svgjs="http://svgjs.com/svgjs" version="1.1" width="512" height="512" x="0" y="0" viewBox="0 0 512 512" style="enable-background:new 0 0 512 512" xml:space="preserve" class=""><g><g xmlns="http://www.w3.org/2000/svg"><path d="m271 110c28.1 2.8 54.4 13.6 76.4 31.2l23.7-23.6c-28.3-23.6-63.5-38-100.1-41.1z" fill="#4ad395" data-original="#000000" style="" class=""/><path d="m246.2 47.9c1.7.8 2.8 2.6 2.8 4.5v159c2.3-.4 4.6-.5 7-.5 1.7 0 3.4.1 5 .3v-158.8c0-1.9 1.1-3.6 2.8-4.5 5.8-2.9 8.7-7.7 8.7-14.5 0-9.7-7.4-17.4-16.9-17.4s-17.3 7.8-17.3 17.4c0 7.2 2.5 11.9 7.9 14.5z" fill="#4ad395" data-original="#000000" style="" class=""/><path d="m271 120v93.5c1 .3 1.9.7 2.9 1.1l66.5-66.3c-20.2-15.9-44-25.5-69.4-28.3z" fill="#4ad395" data-original="#000000" style="" class=""/><path d="m239 120.2c-24.8 3.1-48 12.8-67.7 28.3l66.2 66.4c.5-.2 1-.4 1.5-.6z" fill="#4ad395" data-original="#000000" style="" class=""/><path d="m102.6 115.5c1.8-.5 3.6 0 4.9 1.3l112.3 112.2c2.5-3.4 5.5-6.3 8.8-8.9l-112.3-112.6c-1.3-1.3-1.8-3.2-1.3-4.9 1.7-5.9.2-11.6-4.4-16.1-3.3-3.3-7.6-5.1-12.2-5.1s-8.9 1.8-12.2 5.1-5 7.6-5 12.1c0 4.6 1.9 8.9 5.2 12.2 2.7 2.7 8.5 7 16.2 4.7z" fill="#4ad395" data-original="#000000" style="" class=""/><path d="m239 110.2v-33.5c-36.4 3.4-70.3 17.5-98.4 41l23.6 23.7c21.7-17.4 47.3-28.1 74.8-31.2z" fill="#4ad395" data-original="#000000" style="" class=""/><path d="m363.8 171.7-66.3 66.5c.4.9.8 1.9 1.1 2.8h93.4c-2.8-25.4-12.4-49.2-28.2-69.3z" fill="#4ad395" data-original="#000000" style="" class=""/><path d="m435.5 241c-3-36.6-17.5-71.8-41-100.1l-23.6 23.7c17.6 22.1 28.3 48.3 31.2 76.4z" fill="#4ad395" data-original="#000000" style="" class=""/><path d="m282.8 219.8c3.6 2.7 6.8 5.9 9.4 9.5l112.2-112.4c1.3-1.3 3.2-1.8 4.9-1.3 5.7 1.7 11.5 0 16.2-4.6 3.3-3.3 5.1-7.7 5.1-12.3s-1.8-9-5-12.3c-3.3-3.3-7.6-5-12.2-5s-8.9 1.9-12.2 5.2c-2.7 2.7-7 8.5-4.8 16.2.5 1.8 0 3.7-1.3 4.9z" fill="#4ad395" data-original="#000000" style="" class=""/><path d="m363.5 340.7c15.5-19.7 25.3-42.9 28.3-67.7h-94c-.2.5-.4 1-.6 1.5z" fill="#4ad395" data-original="#000000" style="" class=""/><path d="m148.6 340.7 66.3-66.2c-.2-.5-.5-1-.7-1.5h-94c3.1 24.8 12.8 48.1 28.4 67.7z" fill="#4ad395" data-original="#000000" style="" class=""/><path d="m239 391.8v-94c-.5-.2-1-.4-1.5-.6l-66.2 66.3c19.7 15.5 42.9 25.2 67.7 28.3z" fill="#4ad395" data-original="#000000" style="" class=""/><path d="m256 220.9c-19.4 0-35.1 15.8-35.1 35.1 0 19.4 15.8 35.1 35.1 35.1 19.4 0 35.1-15.8 35.1-35.1 0-19.4-15.7-35.1-35.1-35.1z" fill="#4ad395" data-original="#000000" style="" class=""/><path d="m271 392c25.4-2.8 49.2-12.4 69.3-28.2l-66.5-66.3c-.9.4-1.9.8-2.8 1.1z" fill="#4ad395" data-original="#000000" style="" class=""/><path d="m271 402v33.4c36.6-3 71.8-17.5 100.1-41l-23.7-23.6c-22.1 17.7-48.3 28.4-76.4 31.2z" fill="#4ad395" data-original="#000000" style="" class=""/><path d="m263.8 464.1c-1.7-.8-2.8-2.6-2.8-4.5v-158.8c-1.6.2-3.3.3-5 .3-2.4 0-4.7-.2-7-.5v159.1c0 1.9-1.1 3.6-2.8 4.5-5.3 2.6-7.7 7.1-7.7 14.5 0 9.6 7.8 17.4 17.3 17.4 9.3 0 16.6-7.6 16.6-17.4 0-6.9-2.9-11.7-8.6-14.6z" fill="#4ad395" data-original="#000000" style="" class=""/><path d="m239 401.8c-27.5-3.2-53.2-13.9-74.8-31.2l-23.6 23.7c28.1 23.5 61.9 37.6 98.4 41z" fill="#4ad395" data-original="#000000" style="" class=""/><path d="m370.6 347.8 23.7 23.6c23.6-28.1 37.7-62 41.1-98.4h-33.5c-3.2 27.5-14 53.2-31.3 74.8z" fill="#4ad395" data-original="#000000" style="" class=""/><path d="m409.4 397c-1.8.5-3.6 0-4.9-1.3l-112.7-112.3c-2.6 3.4-5.6 6.4-9 8.9l112.5 112.2c1.3 1.3 1.8 3.2 1.3 4.9-1.7 5.7 0 11.5 4.7 16.1 6.8 6.8 17.8 6.9 24.5.1 3.3-3.3 5.1-7.6 5-12.2 0-4.6-1.9-8.9-5.1-12.2-4.7-4.5-10.3-5.9-16.3-4.2z" fill="#4ad395" data-original="#000000" style="" class=""/><path d="m228.7 291.8c-3.2-2.4-6-5.3-8.5-8.5l-112.7 112.5c-1.3 1.3-3.2 1.8-4.9 1.3-5.9-1.7-11.6-.2-16.1 4.4-6.9 6.9-6.9 17.7-.1 24.5 3.2 3.2 7.5 5.1 12 5.1h.1c4.6 0 8.9-2 12.2-5.3 4.5-4.5 6-10.3 4.3-16.2-.5-1.8 0-3.7 1.3-5z" fill="#4ad395" data-original="#000000" style="" class=""/><path d="m210.9 256c0-1.7.1-3.4.3-5h-158.8c-1.9 0-3.6-1.1-4.5-2.8-2.8-5.8-7.7-8.7-14.5-8.7-9.7 0-17.4 7.4-17.4 16.9s7.8 17.3 17.4 17.3c7.2 0 11.9-2.5 14.5-7.9.8-1.7 2.6-2.8 4.5-2.8h159.1c-.4-2.3-.6-4.6-.6-7z" fill="#4ad395" data-original="#000000" style="" class=""/><path d="m141.5 347.8c-17.4-21.6-28.1-47.3-31.3-74.8h-33.5c3.4 36.5 17.5 70.3 41.1 98.5z" fill="#4ad395" data-original="#000000" style="" class=""/><path d="m141.2 164.5-23.7-23.7c-23.5 28.4-37.9 63.6-41 100.2h33.5c2.8-28.1 13.5-54.4 31.2-76.5zm-29.2-2.1c1.2-1.9 2.5-3.8 3.8-5.6 1.6-2.3 4.7-2.8 7-1.2s2.8 4.7 1.2 7c-1.2 1.7-2.4 3.5-3.6 5.3-1 1.5-2.6 2.3-4.2 2.3-.9 0-1.9-.3-2.7-.8-2.3-1.6-3-4.7-1.5-7zm-20.6 72c-.3 0-.5 0-.8-.1-2.7-.4-4.6-3-4.1-5.7 2.8-17.5 8.3-34.5 16.4-50.3 1.3-2.5 4.3-3.4 6.7-2.2 2.5 1.3 3.4 4.3 2.2 6.7-7.6 14.9-12.8 30.8-15.4 47.4-.4 2.5-2.6 4.2-5 4.2z" fill="#4ad395" data-original="#000000" style="" class=""/><path d="m478.6 239.5c-6.8 0-11.7 2.9-14.5 8.7-.8 1.7-2.6 2.8-4.5 2.8h-158.8c.2 1.6.3 3.3.3 5 0 2.4-.2 4.7-.5 7h159.1c1.9 0 3.6 1.1 4.5 2.8 2.6 5.3 7.1 7.7 14.5 7.7 9.6 0 17.4-7.7 17.4-17.2-.1-9.4-7.7-16.8-17.5-16.8z" fill="#4ad395" data-original="#000000" style="" class=""/><path d="m148.3 171.6c-15.8 20.1-25.5 43.9-28.3 69.4h93.5c.4-1 .8-2 1.2-3z" fill="#4ad395" data-original="#000000" style="" class=""/></g></g></svg>
